<?xml version="1.0" encoding="UTF-8" standalone="no"?>
<svg
   xmlns:dc="http://purl.org/dc/elements/1.1/"
   xmlns:cc="http://creativecommons.org/ns#"
   xmlns:rdf="http://www.w3.org/1999/02/22-rdf-syntax-ns#"
   xmlns:svg="http://www.w3.org/2000/svg"
   xmlns="http://www.w3.org/2000/svg"
   xmlns:sodipodi="http://sodipodi.sourceforge.net/DTD/sodipodi-0.dtd"
   xmlns:inkscape="http://www.inkscape.org/namespaces/inkscape"
   width="197.29366mm"
   height="317.80588mm"
   viewBox="0 0 197.29366 317.80588"
   version="1.1"
   id="svg8"
   inkscape:version="1.0.1 (3bc2e813f5, 2020-09-07)"
   sodipodi:docname="ghost-rider.svg">
  <defs
     id="defs2">
    <clipPath
       clipPathUnits="userSpaceOnUse"
       id="clipPath40">
      <path
         d="M 0,1080 H 1920 V 0 H 0 Z"
         id="path38" />
    </clipPath>
  </defs>
  <sodipodi:namedview
     id="base"
     pagecolor="#ffffff"
     bordercolor="#666666"
     borderopacity="1.0"
     inkscape:pageopacity="0.0"
     inkscape:pageshadow="2"
     inkscape:zoom="0.50880331"
     inkscape:cx="234.02512"
     inkscape:cy="598.22645"
     inkscape:document-units="mm"
     inkscape:current-layer="layer1"
     inkscape:document-rotation="0"
     showgrid="false"
     fit-margin-top="0"
     fit-margin-left="0"
     fit-margin-right="0"
     fit-margin-bottom="0"
     inkscape:window-width="1920"
     inkscape:window-height="1051"
     inkscape:window-x="-9"
     inkscape:window-y="-9"
     inkscape:window-maximized="1" />
  <metadata
     id="metadata5">
    <rdf:RDF>
      <cc:Work
         rdf:about="">
        <dc:format>image/svg+xml</dc:format>
        <dc:type
           rdf:resource="http://purl.org/dc/dcmitype/StillImage" />
        <dc:title></dc:title>
      </cc:Work>
    </rdf:RDF>
  </metadata>
  <g
     inkscape:groupmode="layer"
     id="layer2"
     inkscape:label="Layer 2"
     transform="translate(-18.01039,25.446007)">
    <g
       id="g978"
       transform="translate(-41.645156,57.943861)">
      <g
         id="g62"
         transform="matrix(0.56653502,0,0,-0.56653502,102.62761,218.54469)">
        <path
           d="m 0,0 c 2.811,3.966 -19.714,14.895 -23.705,15.557 -1.974,0.327 -4.02,0.129 -5.994,0.098 5.895,-13.668 -3.009,-13.854 -13.98,-10.468 3.769,-4.579 10.673,-8.463 15.92,-11.132 3.362,-1.71 15.155,-7.107 18.194,-8.017 4.511,-1.352 1.637,6.803 3.432,10.48 C -4.672,-0.49 -0.204,-0.287 0,0 m 75.148,29.622 c -9.494,-0.811 -21.17,-3.03 -29.192,-8.296 -8.152,-5.351 6.398,-2.842 9.219,-7.394 2.19,-3.533 -2.611,-7.515 -0.134,-10.456 8.751,4.789 20.14,5.457 27.097,13.077 l -10.471,3.532 z m 71.66,17.441 c -1.457,1.173 -26.04,-2.558 -27.96,-6.947 9.861,3.463 16.532,1.159 8.737,-8.723 4.563,0.891 9.951,1.11 14.364,2.269 9.733,2.558 0.003,5.18 4.859,13.401 m 22.378,8.486 -8.39,-1.501 c 2.363,-7.261 7.979,-11.083 13.961,-5.201 1.29,1.268 -5.967,3.682 -5.571,6.702 m 66.749,8.963 -20.957,-3.496 c 0.136,-3.649 7.35,-0.249 8.709,-4.357 1.888,-5.703 -4.554,-4.297 -5.218,-7.817 3.986,-1.59 30.391,3.152 26.189,8.705 -0.292,0.386 -6.832,-4.268 -9.67,-0.043 z m 15.733,36.678 -8.003,13.899 -9.376,-6.038 c 5.666,-8.886 7.02,-12.714 17.379,-7.861 m -19.245,43.601 c 3.502,6.721 -14.798,17.356 -17.461,15.689 -0.428,-0.268 4.055,-5.846 -5.246,-5.238 -2.104,-2.214 7.756,-9.849 9.626,-12.189 3.085,8.015 6.713,4.337 13.081,1.738 m -97.856,24.41 c -5.834,-1.994 -18.611,5.641 -19.336,-2.629 -0.863,-9.833 15.828,-10.208 22.83,-9.558 1.35,6.349 -6.535,1.463 -8.716,6.111 -3.091,6.586 5.53,2.554 5.222,6.076 m 41.688,3.27 c -2.258,1.376 -9.156,-1.932 -10.208,-4.149 -2.02,-4.258 5.888,-1.41 7.964,-4.293 0.92,-1.276 -1.612,-4.528 -0.975,-5.275 l 10.465,6.111 c -4.254,-0.139 -6.011,6.853 -7.246,7.606 m -69.642,-11.959 c 1.387,1.017 -20.71,22.386 -23.653,22.717 -13.154,1.48 1.812,-15.077 6.301,-18.249 5.412,-3.824 10.68,-5.262 17.352,-4.468 m 3.427,8.753 c 0.343,0.241 0.125,4.012 2.882,4.953 2.537,0.865 10.669,0.566 13.862,0.295 12.128,-1.027 17.2,-10.464 31.036,-7.078 1.847,0.453 1.982,4.455 4.752,6.087 1.705,1.004 18.376,6.365 20.025,6.194 5.405,-0.563 7.957,-12.715 19.662,-13.613 13.892,-1.065 13.524,3.081 27.514,-7.456 16.429,-12.375 1.781,-15.277 10.657,-25.958 12.761,-15.356 15.309,-24.133 21.328,-43.252 2.22,-7.051 10.556,-12.646 10.637,-13.521 0.054,-0.582 -4.298,-9.981 -4.88,-10.637 -3.103,-3.494 -9.773,-2.322 -12.423,-5.045 -2.431,-2.499 -1.167,-6.692 -2.575,-9.644 -2.906,-6.096 -28.917,-11.943 -35.902,-9.707 -5.01,1.605 -7.906,8.23 -11.62,9.33 -2.65,0.786 -15.903,1.019 -18.505,0.388 -1.019,-0.247 -4.076,-5.944 -6.44,-7.927 -13.968,-11.718 -43.53,-26.843 -61.681,-19.636 -2.537,1.007 -4.228,4.831 -7.047,4.573 C 110.497,27.536 96.214,23.152 95.487,22.756 93.167,21.496 95.895,11.052 88.014,5.452 84.151,2.707 55.716,-8.101 51.128,-8.337 44.063,-8.701 39.7,-3.948 31.442,-6.047 16.347,-9.885 17.272,-25.951 6.033,-27.841 c -12.483,-2.1 -57.28,15.292 -61.161,27.709 -7.444,23.817 16.991,29.565 35.593,25.08 8.012,-1.932 30.222,-17.789 32.34,-17.667 1.135,0.066 16.094,6.606 16.913,7.52 2.208,2.464 1.568,6.409 4.216,9.749 6.712,8.467 36.467,15.664 46.956,13.411 3.787,-0.814 6.93,-4.499 10.959,-4.773 1.484,-0.1 14.405,2.757 15.413,3.315 2.162,1.196 -1.03,10.217 8.562,14.467 9.742,4.316 25.746,4.259 34.995,6.936 6.216,1.8 16.812,10.096 27.038,11.523 17.555,2.448 4.459,-12.515 22.346,-10.255 7.063,0.892 5.002,4.06 8.594,7.15 8.252,7.1 30.776,5.785 41.104,6.969 -0.042,15.431 -15.501,21.563 -21.313,34.479 -21.191,-0.585 -8.718,11.43 -0.791,19.425 4.583,4.621 -10.049,9.434 -12.772,11.548 -2.161,1.679 -12.016,9.991 -13.091,11.357 -2.493,3.17 -1.927,7.663 -5.474,10.236 -7.069,5.127 -14.64,-6.523 -24.254,-6.87 -10.69,-0.386 -9.659,9.66 -22.795,7.033 -5.289,-1.057 -5.533,-9.635 -14.116,-10.453 -10.75,-1.024 -18.433,8.067 -22.871,8.475 -2.816,0.258 -4.849,-5.696 -13.653,-5.108 -10.048,0.671 -38.351,28.766 -20.172,34.27 13.058,3.954 26.524,-21.866 31.441,-18.42"
           style="fill:#000000;fill-opacity:1;fill-rule:nonzero;stroke:none"
           id="path64" />
      </g>
      <g
         id="g200"
         transform="matrix(0.56653502,0,0,-0.56653502,102.62761,218.54469)">
        <path
           d="m 0,0 c -0.204,-0.287 -4.672,-0.49 -6.133,-3.482 -1.795,-3.677 1.079,-11.832 -3.432,-10.48 -3.039,0.91 -14.832,6.307 -18.194,8.017 -5.247,2.669 -12.151,6.553 -15.92,11.132 10.971,-3.386 19.875,-3.2 13.98,10.468 1.974,0.031 4.02,0.229 5.994,-0.098 C -19.714,14.895 2.811,3.966 0,0"
           style="fill:#ffffff;fill-opacity:1;fill-rule:nonzero;stroke:none"
           id="path202" />
      </g>
      <g
         id="g204"
         transform="matrix(0.56653502,0,0,-0.56653502,145.2017,201.76302)">
        <path
           d="M 0,0 -3.481,-9.537 6.99,-13.068 c -6.957,-7.621 -18.346,-8.288 -27.097,-13.077 -2.477,2.94 2.324,6.922 0.134,10.455 -2.821,4.552 -17.371,2.043 -9.219,7.395 C -21.17,-3.029 -9.494,-0.811 0,0"
           style="fill:#ffffff;fill-opacity:1;fill-rule:nonzero;stroke:none"
           id="path206" />
      </g>
      <g
         id="g208"
         transform="matrix(0.56653502,0,0,-0.56653502,163.02777,127.60897)">
        <path
           d="M 0,0 C -6.672,-0.794 -11.94,0.644 -17.352,4.468 -21.841,7.64 -36.808,24.197 -23.653,22.717 -20.71,22.386 1.386,1.017 0,0"
           style="fill:#ffffff;fill-opacity:1;fill-rule:nonzero;stroke:none"
           id="path210" />
      </g>
      <g
         id="g212"
         transform="matrix(0.56653502,0,0,-0.56653502,236.29311,181.99662)">
        <path
           d="m 0,0 -0.947,-7.008 c 2.838,-4.225 9.378,0.429 9.67,0.044 4.202,-5.554 -22.203,-10.296 -26.189,-8.705 0.664,3.519 7.106,2.113 5.218,7.817 -1.359,4.107 -8.573,0.708 -8.709,4.357 z"
           style="fill:#ffffff;fill-opacity:1;fill-rule:nonzero;stroke:none"
           id="path214" />
      </g>
      <g
         id="g216"
         transform="matrix(0.56653502,0,0,-0.56653502,185.79926,191.88197)">
        <path
           d="m 0,0 c -4.855,-8.221 4.874,-10.842 -4.858,-13.401 -4.413,-1.159 -9.801,-1.378 -14.364,-2.269 7.795,9.882 1.124,12.186 -8.737,8.724 C -26.04,-2.558 -1.457,1.173 0,0"
           style="fill:#ffffff;fill-opacity:1;fill-rule:nonzero;stroke:none"
           id="path218" />
      </g>
      <g
         id="g220"
         transform="matrix(0.56653502,0,0,-0.56653502,234.30367,136.51542)">
        <path
           d="m 0,0 c -6.369,2.598 -9.997,6.277 -13.082,-1.738 -1.869,2.34 -11.73,9.974 -9.626,12.189 9.302,-0.608 4.819,4.97 5.246,5.238 C -14.799,17.356 3.501,6.72 0,0"
           style="fill:#ffffff;fill-opacity:1;fill-rule:nonzero;stroke:none"
           id="path222" />
      </g>
      <g
         id="g224"
         transform="matrix(0.56653502,0,0,-0.56653502,178.86435,122.68635)">
        <path
           d="m 0,0 c 0.308,-3.522 -8.313,0.51 -5.222,-6.076 2.182,-4.648 10.066,0.238 8.717,-6.111 -7.002,-0.65 -23.694,-0.276 -22.831,9.557 C -18.61,5.641 -5.834,-1.994 0,0"
           style="fill:#ffffff;fill-opacity:1;fill-rule:nonzero;stroke:none"
           id="path226" />
      </g>
      <g
         id="g228"
         transform="matrix(0.56653502,0,0,-0.56653502,245.20612,161.21686)">
        <path
           d="m 0,0 c -10.358,-4.853 -11.713,-1.025 -17.379,7.861 l 9.377,6.037 z"
           style="fill:#ffffff;fill-opacity:1;fill-rule:nonzero;stroke:none"
           id="path230" />
      </g>
      <g
         id="g232"
         transform="matrix(0.56653502,0,0,-0.56653502,202.48229,120.83406)">
        <path
           d="M 0,0 C 1.234,-0.752 2.992,-7.745 7.245,-7.606 L -3.22,-13.717 c -0.636,0.748 1.896,3.999 0.976,5.276 -2.076,2.882 -9.984,0.034 -7.964,4.293 C -9.156,-1.931 -2.258,1.376 0,0"
           style="fill:#ffffff;fill-opacity:1;fill-rule:nonzero;stroke:none"
           id="path234" />
      </g>
      <g
         id="g236"
         transform="matrix(0.56653502,0,0,-0.56653502,198.47729,187.07413)">
        <path
           d="m 0,0 c -0.396,-3.02 6.861,-5.434 5.571,-6.702 -5.982,-5.882 -11.598,-2.06 -13.961,5.2 z"
           style="fill:#ffffff;fill-opacity:1;fill-rule:nonzero;stroke:none"
           id="path238" />
      </g>
    </g>
  </g>
  <g
     inkscape:label="Layer 1"
     inkscape:groupmode="layer"
     id="layer1"
     transform="translate(-18.01039,25.446007)">
    <path
       fill-rule="evenodd"
       clip-rule="evenodd"
       stroke="#000000"
       stroke-width="0.458112"
       stroke-linecap="round"
       stroke-linejoin="round"
       stroke-miterlimit="22.9256"
       d="m 75.867724,84.675434 c 8.984182,-0.150839 17.070612,-0.530952 23.314992,-1.037477 6.244524,-0.506654 10.646984,-1.139624 13.656624,-2.722713 3.0101,-1.58322 4.62739,-4.115974 5.25623,-6.648729 0.62883,-2.533047 0.26982,-5.066094 -0.15782,-6.955807 -0.42742,-1.890021 -0.92293,-3.137308 -1.11474,-4.861034 -0.19148,-1.723564 -0.0791,-3.923728 0.39322,-6.02309 0.47232,-2.099378 1.30485,-4.097663 0.82169,-3.875947 -0.48284,0.221262 -2.28108,2.663012 -3.20846,5.015879 -0.92722,2.352236 -0.98311,4.616239 -1.9323,5.858936 -0.94907,1.242714 -2.79084,1.464122 -3.66705,-0.126672 -0.87591,-1.59102 -0.78596,-4.994502 0.71313,-7.962758 1.49925,-2.968256 4.40811,-5.501011 5.76138,-9.01548 1.35326,-3.51434 1.15123,-8.010248 0.0175,-11.114875 -1.13351,-3.104464 -3.19853,-4.817502 -4.88332,-6.606429 -1.68462,-1.788927 -2.98872,-3.653435 -3.66824,-5.849934 -0.67924,-2.196336 -0.73376,-4.725133 -0.55968,-6.466409 0.17409,-1.741583 0.57663,-2.69553 -0.0469,-2.01859 -0.62348,0.676632 -2.27284,2.984135 -2.73828,6.291258 -0.4653,3.306653 0.25349,7.612586 0.83743,11.095314 0.58408,3.482566 1.03319,6.14222 0.31442,8.042005 -0.71864,1.899331 -2.60559,3.039264 -3.77363,1.773049 -1.16788,-1.26654 -1.617284,-4.93952 -1.392664,-7.915269 0.224784,-2.976187 1.122984,-5.255906 1.212934,-7.598848 0.0899,-2.342942 -0.62883,-4.74909 -1.752134,-6.522154 -1.12298,-1.773049 -2.65032,-2.912673 -3.86357,-3.989075 -1.21277,-1.076711 -2.11112,-2.089907 -1.88664,-4.242727 0.22478,-2.153129 1.57238,-5.44572 1.48245,-6.015467 -0.0899,-0.570039 -1.61714,1.582927 -2.78516,3.482728 -1.16804,1.899477 -1.97646,3.545627 -1.88667,5.635533 0.09,2.089582 1.07809,4.622337 0.9883,6.77532 -0.0898,2.15282 -1.25766,3.925868 -2.92,4.55913 -1.66219,0.632953 -3.81868,0.126834 -4.85171,-1.519851 -1.03335,-1.646457 -0.9434,-4.432556 -0.13478,-7.155432 0.80874,-2.722843 2.33592,-5.382481 3.86326,-7.788499 1.52751,-2.406148 3.055,-4.559131 4.22288,-6.838542 1.16804,-2.279719 1.97676,-4.685867 1.30287,-7.851884 -0.67373,-3.166308 -2.83022,-7.092177 -4.94165,-9.435119 -2.11144,-2.342941 -4.17783,-3.102794 -5.52574,-5.128861 -1.34778,-2.026538 -1.97645,-5.319454 -2.38098,-5.129332 -0.404192,0.189959 -0.583922,3.862792 0.0451,6.902072 0.629,3.039409 2.06639,5.44572 2.87511,7.535318 0.80858,2.089614 0.98845,3.862354 0.17958,4.875696 -0.80856,1.01318 -2.60558,1.266361 -3.638772,0.126834 -1.03336,-1.139786 -1.30258,-3.672849 -1.39252,-5.509266 -0.0899,-1.836255 -1.4e-4,-2.976187 -0.40452,-2.216189 -0.4042,0.759852 -1.30255,3.419344 -1.52734,6.205588 -0.22448,2.786082 0.22479,5.699064 0.43154,8.340081 0.20676,2.641018 0.17134,5.010365 -0.69999,7.232052 -0.87132,2.221703 -2.57825,4.295569 -4.09445,4.63609 -1.51604,0.340392 -2.84135,-1.052576 -3.07744,-2.44569 -0.23563,-1.393276 0.61798,-2.786098 1.19078,-4.43254 0.57265,-1.646457 0.86477,-3.54595 0.24694,-5.714795 -0.61755,-2.168862 -2.14506,-4.606621 -3.89809,-5.933934 -1.75303,-1.327605 -3.73194,-1.544747 -4.41986,-1.481216 -0.68779,0.06358 -0.0845,0.407409 0.50896,0.916221 0.5937,0.508342 1.17766,1.18147 1.6999,2.657659 0.52241,1.476189 0.9828,3.755908 0.78078,5.885211 -0.20219,2.128832 -1.0671,4.108042 -2.32141,5.80825 -1.25416,1.699738 -2.89786,3.121106 -4.53211,5.385093 -1.63408,2.263678 -3.25854,5.36983 -3.79301,8.478138 -0.53431,3.108277 0.0214,6.218256 0.7035,9.16666 0.68244,2.947949 1.49116,5.73434 1.38442,7.89175 -0.10656,2.157086 -1.12817,3.685501 -2.67232,3.832252 -1.54398,0.146783 -3.61068,-1.088161 -4.3174,-3.947554 -0.70671,-2.859231 -0.0538,-7.342926 0.49722,-10.787766 0.55109,-3.444857 1.0002,-5.851167 0.95516,-8.130724 -0.0448,-2.279736 -0.58379,-4.43254 -1.75183,-6.458916 -1.16788,-2.026392 -2.96505,-3.925869 -3.24098,-3.844935 -0.27594,0.08077 0.96904,2.141824 1.46321,4.484766 0.4943,2.342909 0.23745,4.967594 -1.01396,7.862718 -1.25126,2.895123 -3.49753,6.061432 -4.97998,9.164226 -1.48245,3.102486 -2.20138,6.142204 -2.06655,9.498341 0.13478,3.35583 1.123,7.028663 2.20123,10.004867 1.07825,2.976187 2.24613,5.255598 2.56054,7.282136 0.31457,2.026538 -0.22433,3.799278 -0.89835,4.685884 -0.67389,0.886589 -1.4823,0.886589 -2.15634,-0.379935 -0.67387,-1.266523 -1.21292,-3.799278 -1.79717,-6.078997 -0.58395,-2.27972 -1.21262,-4.305787 -1.82008,-5.285393 -0.60731,-0.97959 -1.19292,-0.912865 -1.18942,-0.738168 0.003,0.174389 0.59663,0.456278 0.75467,2.639039 0.15813,2.182599 -0.11873,6.266508 -0.3022,10.144725 -0.18308,3.878071 -0.27303,7.550613 1.52444,11.120973 1.79764,3.570069 5.48238,7.038135 12.2658,8.81133 6.78342,1.772594 16.66565,1.85077 25.64984,1.6999 z"
       id="path10" />
    <path
       id="path3362"
       d="m 75.780844,250.02321 c -1.94132,-0.62704 -19.35819,-9.50073 -22.09977,-11.25958 -3.25081,-2.08555 -6.31109,-5.37435 -8.6243,-9.26828 -1.84981,-3.11391 -2.06329,-3.68299 -2.06329,-5.50024 0,-1.36116 0.36147,-3.00733 1.10046,-5.01159 l 1.10048,-2.98465 -0.55703,-6.11486 c -0.30638,-3.36318 -0.55704,-7.21862 -0.55704,-8.56765 0,-3.02776 0.84882,-6.0543 1.84794,-6.58902 1.6209,-0.86747 3.58644,1.81188 3.58644,4.88892 0,8.0022 3.45546,22.71948 4.779,20.35444 0.22292,-0.39833 0.13706,-1.51136 -0.25119,-3.25653 -0.32443,-1.45824 -0.53849,-3.36999 -0.47567,-4.24834 0.11234,-1.57083 0.13724,-1.59888 1.52053,-1.71229 0.77349,-0.0634 1.58864,0.0676 1.81146,0.291 0.25421,0.25494 0.40512,2.04958 0.40512,4.81771 0,4.82506 0.0806,4.98387 2.25331,4.43856 0.91228,-0.22897 0.92437,-0.27576 0.71537,-2.76871 -0.18454,-2.20118 -0.11955,-2.62886 0.49254,-3.24095 0.8173,-0.81729 2.24582,-0.92448 2.83645,-0.21283 0.22471,0.27075 0.7159,1.3856 1.09155,2.47741 1.29141,3.75356 2.11846,4.4082 2.88636,2.28463 0.48675,-1.34613 1.35568,-1.78042 3.13947,-1.56915 1.1529,0.13656 1.35063,0.43401 2.19737,3.30551 0.66479,2.25447 1.3773,2.90706 2.97294,2.72293 0.79403,-0.0917 0.99642,-0.3177 1.07404,-1.19978 0.37592,-4.27086 0.63376,-4.52769 3.118332,-3.10616 2.30171,1.3169 2.38493,1.41391 3.12611,3.64447 0.40867,1.22985 0.75054,1.66479 1.37853,1.75382 1.13792,0.1613 1.68189,-0.37561 2.22611,-2.19726 0.25371,-0.84923 0.77251,-2.15541 1.15287,-2.90263 0.62571,-1.22918 0.83001,-1.35859 2.14476,-1.35859 0.97305,0 1.52377,0.18397 1.66686,0.55684 0.27757,0.72334 2.10964,1.66706 2.75531,1.4193 0.31936,-0.12257 0.44678,-0.56604 0.3507,-1.22068 -0.12382,-0.84359 0.0859,-1.20884 1.16838,-2.03445 0.80085,-0.61084 1.44995,-0.87558 1.65181,-0.67371 0.18291,0.18291 0.75608,1.79404 1.27372,3.58031 0.51764,1.78626 1.01429,3.32089 1.103684,3.41027 0.28496,0.28495 2.3477,-1.9079 2.54894,-2.70971 0.10652,-0.42424 -0.0775,-1.70352 -0.40859,-2.84284 -0.63899,-2.19803 -0.50348,-3.58564 0.45389,-4.64798 0.70702,-0.78455 2.49367,-0.82492 3.24525,-0.0733 0.30839,0.30838 0.60189,0.51216 0.65226,0.45286 0.0504,-0.0593 0.86611,-2.79783 1.81277,-6.08563 1.95359,-6.78496 3.12223,-9.55448 4.37911,-10.37801 1.96945,-1.29045 2.72798,0.51143 1.8375,4.36504 -0.76559,3.31318 -1.80801,17.90566 -1.58122,22.13493 0.24954,4.65342 -0.48657,7.79591 -2.28259,9.74436 -2.16012,2.34344 -12.308184,9.15416 -18.741774,12.57825 -1.94429,1.03478 -4.08414,2.28687 -4.75526,2.78238 -2.87968,2.12624 -7.892732,2.88367 -11.460002,1.73149 z m 4.709802,-36.62742 c -0.19927,-0.0731 -1.039402,-0.30688 -1.866982,-0.51936 -1.43634,-0.36878 -1.52417,-0.47253 -1.93367,-2.28384 -0.74696,-3.30407 -0.64922,-3.16552 -2.23304,-3.16552 -1.28161,0 -1.50486,0.12884 -1.86181,1.0745 -0.50865,1.34758 -1.87236,1.70417 -3.6603,0.95712 -1.49685,-0.62542 -1.40511,-0.12039 -1.45477,-8.00943 l -0.0319,-5.07209 h -0.90573 c -0.74707,0 -0.89096,0.15867 -0.82139,0.90574 0.29962,3.21801 0.175,4.26801 -0.74174,6.24952 l -0.96376,2.08318 h -1.78383 c -1.53572,0 -1.91052,-0.15059 -2.69483,-1.08268 -0.78226,-0.92966 -1.41446,-2.91889 -1.77645,-5.58968 -0.18296,-1.34993 -0.94478,-0.99869 -1.25687,0.57945 -0.35171,1.77846 -1.13218,2.16769 -2.20181,1.09806 -0.49502,-0.49502 -0.7619,-1.45498 -0.93783,-3.37347 -0.3942,-4.29838 -1.21077,-7.5974 -2.12205,-8.57328 -1.19042,-1.2748 -3.35939,-2.43628 -6.26986,-3.3575 l -2.55011,-0.80715 -2.62749,1.15322 c -1.72012,0.75496 -2.89389,1.06866 -3.3989,0.90838 -0.42427,-0.13467 -1.88482,-1.35165 -3.24566,-2.70442 -2.8289,-2.81212 -2.77024,-2.54833 -1.93083,-8.6834 0.78074,-5.70625 0.68153,-9.99632 -0.34529,-14.93121 -0.48564,-2.334 -1.06473,-4.58321 -1.28685,-4.99824 -0.22212,-0.41504 -0.97514,-2.33665 -1.67336,-4.27023 -0.69823,-1.93359 -2.39066,-6.21541 -3.76096,-9.51515 -2.58235,-6.21844 -5.00028,-14.76088 -5.76947,-20.38336 -0.49495,-3.61786 -0.49761,-14.56948 -0.004,-17.61002 0.72943,-4.495656 4.75278,-17.83683 6.55991,-21.752288 1.93013,-4.1819 3.32039,-6.332956 5.70659,-8.829369 2.05575,-2.150706 8.14998,-6.980959 10.0425,-7.959619 0.57165,-0.295613 1.36505,-0.899207 1.7631,-1.341323 1.25648,-1.395581 3.59377,-2.815951 9.48985,-5.76699 10.53552,-5.273127 20.60032,-7.32222 32.025392,-6.520056 6.76954,0.475297 16.557214,1.949376 20.435734,3.077726 4.51742,1.314233 10.26195,4.196776 13.40916,6.728582 5.04347,4.057272 7.29449,6.86032 10.75156,13.388328 1.73128,3.269219 3.65351,7.228396 4.27159,8.79815 0.61808,1.569766 1.35801,3.307077 1.64428,3.860686 0.28629,0.553609 0.91773,2.366857 1.40318,4.029427 0.48547,1.662559 1.30041,4.454068 1.81099,6.203341 2.23088,7.643025 4.08795,22.743595 3.70499,30.126835 -0.18774,3.61962 -0.40098,4.77048 -1.309,7.06468 -0.59658,1.50736 -2.739,7.224 -4.76092,12.70366 l -3.67624,9.963 -0.0388,7.42698 c -0.0335,6.40126 0.0566,7.71828 0.65293,9.53628 0.61708,1.88142 0.64371,2.37064 0.24647,4.52863 -0.24493,1.33065 -0.92456,3.42396 -1.51027,4.65183 -0.96785,2.02894 -1.31242,2.37975 -3.77942,3.84789 -2.93843,1.74871 -2.61617,1.68755 -12.07939,2.29238 -4.45702,0.28485 -4.76788,0.48226 -7.03421,4.46698 -1.47961,2.6015 -1.646,2.75655 -4.76902,4.44355 -1.77974,0.96137 -3.31552,1.82759 -3.412844,1.92491 -0.0973,0.0973 -0.29844,1.87941 -0.44696,3.96022 -0.3185,4.46228 -0.50093,5.16149 -1.42297,5.45415 -1.44178,0.45759 -2.04153,-0.27825 -3.76613,-4.62076 -0.43143,-1.08634 -0.72953,-1.35859 -1.48759,-1.35859 -2.17544,0 -2.34956,0.36247 -2.34956,4.89093 0,3.72316 -0.0706,4.17869 -0.70076,4.5159 -0.91756,0.49106 -3.53726,0.48299 -3.84307,-0.0119 -0.13153,-0.21279 -0.3276,-1.36258 -0.43573,-2.5551 -0.19514,-2.152 -0.2047,-2.1674 -1.2768,-2.05858 -0.97476,0.0989 -1.1682,0.34833 -1.98169,2.55512 -0.49581,1.34499 -1.00524,2.43259 -1.13207,2.41685 -0.12684,-0.0158 -0.39362,-0.0885 -0.59289,-0.16162 z m -1.088252,-35.71403 1.612742,-1.48658 -0.22205,-2.12457 c -0.25077,-2.39929 0.40216,-5.35428 1.25542,-5.68172 0.8025,-0.30795 1.39339,0.75285 1.89234,3.3972 0.27254,1.44439 0.77771,2.75831 1.29846,3.37718 0.95184,1.1312 4.67502,2.68186 5.99165,2.49544 1.01436,-0.14361 1.71679,-1.91357 2.02138,-5.09346 0.27261,-2.84609 -0.4243,-5.04536 -2.43351,-7.67952 -3.16633,-4.15116 -4.6836,-6.64941 -6.35171,-10.45837 -1.7754,-4.05391 -2.38916,-4.62128 -4.23854,-3.91815 -0.704022,0.26767 -0.973662,0.82996 -1.520442,3.17064 -0.7384,3.16094 -1.31409,4.43171 -3.88933,8.58551 -0.96905,1.56305 -1.91317,3.51942 -2.09807,4.34749 -0.75325,3.3737 -1.54403,8.45569 -1.41986,9.12468 0.13585,0.73178 4.5817,3.30957 5.84665,3.38998 0.35318,0.0224 1.36785,-0.62813 2.25487,-1.44575 z m 34.309086,-17.65449 c 1.33433,-0.60474 3.89607,-2.12922 5.69275,-3.38772 3.08669,-2.16207 3.27994,-2.3747 3.50687,-3.85829 0.13209,-0.86358 0.1128,-2.81996 -0.0429,-4.3475 -0.15567,-1.52756 -0.24479,-4.99702 -0.19805,-7.70994 0.0846,-4.90814 0.0803,-4.93617 -0.84447,-5.66366 -0.59326,-0.46665 -1.98954,-0.88611 -3.86024,-1.15964 -1.61193,-0.2357 -3.93438,-0.74913 -5.16099,-1.14099 -3.38517,-1.08144 -7.0626,-1.28713 -9.47056,-0.52974 -1.09537,0.34454 -2.36288,0.91634 -2.81671,1.27062 -1.117584,0.87254 -3.757854,2.19298 -4.384934,2.19298 -0.28006,0 -1.6763,0.58387 -3.10275,1.29748 -2.26803,1.13465 -2.70754,1.52242 -3.50165,3.08954 l -0.90808,1.79203 0.72948,3.07151 c 0.40121,1.68934 1.065,3.72918 1.47508,4.53299 0.6809,1.33468 9.02312,9.84646 10.439034,10.65121 1.38562,0.78753 4.38203,1.26522 7.12368,1.13564 2.25547,-0.10664 3.43643,-0.38086 5.3244,-1.23652 z m -48.907256,-1.72856 c 1.94496,-1.00579 3.9941,-3.84944 5.33975,-7.41014 0.4098,-1.08435 1.4899,-2.94975 2.40021,-4.1453 1.49099,-1.9582 1.6363,-2.32017 1.46518,-3.6503 -0.24945,-1.93933 -1.98865,-6.23105 -3.28052,-8.09521 -0.56459,-0.81471 -1.53372,-1.79424 -2.15362,-2.17673 -0.6329,-0.39053 -3.98637,-1.28131 -7.64831,-2.03163 -5.97678,-1.22462 -6.83728,-1.31631 -10.30634,-1.09835 -3.96522,0.24912 -6.39894,0.81565 -9.00365,2.09586 -3.4397,1.6906 -4.09833,4.75999 -2.32377,10.82922 1.58466,5.41968 1.88887,7.18878 1.88887,10.98456 v 3.37997 l 1.13223,0.46898 c 0.89729,0.37167 1.4423,0.37941 2.62661,0.0373 0.82191,-0.23745 2.49971,-0.60236 3.72844,-0.81095 2.06226,-0.35005 2.42121,-0.30433 4.66798,0.59452 3.62283,1.44936 4.06523,1.54455 7.33589,1.57841 2.10242,0.0218 3.34505,-0.14372 4.13105,-0.55017 z"
       style="fill:#000000;stroke-width:0.289832" />
  </g>
</svg>
